<?xml version="1.0" standalone="no"?>
<!DOCTYPE svg PUBLIC "-//W3C//DTD SVG 20010904//EN"
 "http://www.w3.org/TR/2001/REC-SVG-20010904/DTD/svg10.dtd">
<svg version="1.0" xmlns="http://www.w3.org/2000/svg"
 width="500.000000pt" height="500.000000pt" viewBox="0 0 500.000000 500.000000"
 preserveAspectRatio="xMidYMid meet">

<g transform="translate(0.000000,500.000000) scale(0.100000,-0.100000)"
fill="#000000" stroke="none">
<path d="M1183 4038 c4 -79 7 -275 7 -435 l0 -293 136 0 135 0 -7 -322 c-4
-178 -7 -564 -8 -858 -1 -583 -5 -537 59 -750 24 -82 93 -230 121 -261 8 -8
14 -19 14 -23 0 -14 60 -88 129 -159 60 -62 201 -177 217 -177 4 0 22 -11 40
-25 18 -14 36 -25 41 -25 4 0 28 -10 53 -23 48 -24 106 -46 185 -70 119 -36
171 -42 350 -40 154 1 194 5 280 26 139 35 276 86 320 120 6 4 46 30 90 59 82
53 305 268 305 295 0 7 7 16 15 19 8 4 15 12 15 19 0 7 3 15 8 17 12 5 98 180
117 238 10 30 21 64 25 75 14 39 30 141 36 240 6 103 -8 327 -25 380 -43 138
-60 181 -100 260 -25 50 -69 121 -98 158 -92 122 -287 307 -322 307 -6 0 -11
4 -11 9 0 5 -21 18 -47 30 -27 11 -64 29 -83 40 -63 35 -103 51 -142 58 -21 3
-41 10 -44 14 -3 5 -20 9 -39 9 -19 0 -36 4 -39 9 -3 4 -85 14 -182 21 -135
10 -181 11 -195 2 -10 -7 -32 -12 -47 -12 l-29 0 -6 -262 c-7 -282 -9 -678 -3
-678 1 0 23 11 48 24 47 25 129 46 178 46 103 0 250 -116 283 -223 9 -32 17
-80 17 -107 0 -52 -18 -152 -29 -160 -4 -3 -15 -18 -25 -35 -27 -43 -90 -95
-150 -124 -42 -20 -67 -25 -136 -25 -72 0 -93 4 -140 27 -69 33 -101 66 -140
142 -21 42 -32 80 -36 130 -4 38 -10 75 -14 80 -7 11 12 1491 20 1498 9 9 717
12 835 3 237 -16 399 -78 509 -196 132 -141 147 -352 47 -620 -12 -30 -21 -58
-21 -62 0 -5 181 -7 403 -6 l402 3 27 82 c40 124 62 302 54 450 -6 115 -39
317 -56 338 -4 6 -11 26 -15 45 -11 53 -83 195 -142 282 -62 91 -84 118 -137
167 -21 20 -57 53 -80 74 -126 117 -347 221 -574 272 -191 42 -270 45 -1361
45 l-1044 0 6 -142z"/>
<path d="M462 4144 c-133 -35 -254 -157 -301 -303 -14 -42 -15 -218 -1 -226 6
-3 10 -13 10 -22 0 -60 116 -204 202 -252 151 -83 344 -60 471 58 106 97 157
276 123 426 -24 102 -49 148 -117 215 -107 105 -245 143 -387 104z"/>
</g>
</svg>
