<?xml version="1.0" encoding="UTF-8"?>
<!DOCTYPE svg PUBLIC "-//W3C//DTD SVG 1.1//EN" "http://www.w3.org/Graphics/SVG/1.1/DTD/svg11.dtd">
<svg xmlns="http://www.w3.org/2000/svg" version="1.1" width="500px" height="500px" style="shape-rendering:geometricPrecision; text-rendering:geometricPrecision; image-rendering:optimizeQuality; fill-rule:evenodd; clip-rule:evenodd" xmlns:xlink="http://www.w3.org/1999/xlink">
<g><path style="opacity:1" fill="#fffefe" d="M -0.5,-0.5 C 166.167,-0.5 332.833,-0.5 499.5,-0.5C 499.5,166.167 499.5,332.833 499.5,499.5C 332.833,499.5 166.167,499.5 -0.5,499.5C -0.5,332.833 -0.5,166.167 -0.5,-0.5 Z"/></g>
<g><path style="opacity:1" fill="#ff0201" d="M 117.5,81.5 C 191.842,81.1037 266.176,81.6037 340.5,83C 415.089,93.9162 454.422,136.916 458.5,212C 457.549,227.496 454.882,242.662 450.5,257.5C 423.5,257.5 396.5,257.5 369.5,257.5C 390.617,203.208 372.284,173.708 314.5,169C 287.161,168.167 259.827,168.333 232.5,169.5C 230.887,219.454 230.387,269.454 231,319.5C 230.959,331.2 234.792,341.366 242.5,350C 262.831,361.709 279.998,358.209 294,339.5C 302.634,315.604 295.134,299.104 271.5,290C 262.047,289.03 253.381,291.196 245.5,296.5C 244.527,265.17 244.527,233.836 245.5,202.5C 308.086,196.044 352.586,221.377 379,278.5C 397.992,341.54 380.158,391.04 325.5,427C 299.158,440.946 271.158,445.613 241.5,441C 188.445,428.612 156.278,395.778 145,342.5C 144.3,284.496 144.467,226.496 145.5,168.5C 136.5,168.5 127.5,168.5 118.5,168.5C 118.737,139.488 118.403,110.488 117.5,81.5 Z"/></g>
<g><path style="opacity:1" fill="#ff0602" d="M 49.5,83.5 C 75.3955,82.8937 91.2288,95.227 97,120.5C 97.9138,153.918 81.7471,170.418 48.5,170C 22.7371,161.308 11.5704,143.474 15,116.5C 20.8808,99.449 32.3808,88.449 49.5,83.5 Z"/></g>
</svg>
